<?xml version="1.0" encoding="UTF-8"?>
<svg id="Layer_1" data-name="Layer 1" xmlns="http://www.w3.org/2000/svg" viewBox="0 0 598.33 181.79">
  <defs>
    <style>
      .cls-1 {
        fill: #166455;
      }

      .cls-2 {
        fill: #1e3545;
      }
    </style>
  </defs>
  <path class="cls-1" d="M598.08,45.43v3.95c0,2.06-.47,3.83-1.41,5.31s-2.1,2.22-3.5,2.22h-1.2c-1.93,0-3.66,.36-5.19,1.06s-2.84,1.64-3.94,2.79c-1.1,1.17-1.97,2.49-2.61,3.98-.65,1.49-1.05,3.03-1.21,4.6l-.56,6.33c-.11,1.17-.46,2.12-1.05,2.86-.59,.75-1.2,1.12-1.85,1.12h-.24c-.8,0-1.48-.45-2.01-1.37-.54-.91-.8-1.98-.8-3.23V41.36c0-.99,.22-1.83,.68-2.53s1-1.05,1.65-1.05,1.19,.35,1.65,1.05c.45,.71,.68,1.56,.68,2.55v4.1c0,.67,.13,1.2,.4,1.62,.27,.41,.59,.62,.97,.62s.72-.25,1.04-.75c1.82-2.9,3.86-5.13,6.11-6.71,2.25-1.57,4.75-2.36,7.48-2.36,1.34,0,2.49,.72,3.46,2.16,.96,1.44,1.45,3.23,1.45,5.37Z"/>
  <path class="cls-2" d="M578.05,89.22v44.11c0,2.9-.64,5.32-1.93,7.27-1.28,1.94-2.84,2.96-4.66,3.04-1.87,0-3.46-.99-4.74-2.98-1.29-1.99-1.93-4.43-1.93-7.33V41.88c0-1.16,.25-2.13,.77-2.92s1.16-1.18,1.92-1.18,1.4,.39,1.92,1.18,.78,1.76,.78,2.92v35.91c0,1.41,.3,2.65,.91,3.72,.61,1.08,1.37,1.7,2.27,1.87l1.51,.25c.9,.16,1.66,.79,2.27,1.86,.61,1.08,.91,2.32,.91,3.73Z"/>
  <path class="cls-1" d="M558.03,84.12c0,1.66-.02,3.38-.08,5.16-.05,1.78-.13,3.67-.24,5.65-.11,1.49-.64,2.24-1.61,2.24l-27.66,.37c-.53,0-.99-.29-1.36-.87-.38-.58-.57-1.28-.57-2.11s.18-1.51,.53-2.05,.79-.81,1.32-.81l25.73,.13c.06-1.08,.1-2.13,.13-3.17,.02-1.04,.04-2.05,.04-3.04,0-5.97-.43-11.56-1.29-16.78-.48-2.9-1.15-5.76-2.01-8.57-.86-2.82-1.98-5.37-3.38-7.64-1.39-2.28-3.09-4.19-5.1-5.72s-4.39-2.46-7.12-2.8c-.54-.08-.99-.41-1.37-.99-.37-.58-.56-1.32-.56-2.24s.21-1.67,.64-2.29c.43-.63,.91-.94,1.45-.94h.16c1.13,.17,2.53,.54,4.22,1.12s3.43,1.58,5.23,2.98c1.79,1.41,3.55,3.34,5.27,5.78,1.71,2.45,3.16,5.61,4.34,9.51,.37,.99,.73,2.19,1.08,3.6s.66,3.02,.93,4.85c.43,2.98,.75,6.19,.96,9.63,.22,3.43,.32,6.44,.32,9Z"/>
  <path class="cls-2" d="M553.77,134.82c0,2.4-.56,4.47-1.68,6.21-1.13,1.74-2.47,2.61-4.03,2.61h-15.19c-3.86,0-7.37-.87-10.54-2.61-3.16-1.74-5.87-4.24-8.12-7.52-2.25-3.27-3.99-7.22-5.22-11.86-1.24-4.64-1.85-9.9-1.85-15.78v-28.83c0-9.94,1.58-18.16,4.74-24.66s7.4-10.96,12.71-13.36c.26-.08,.49-.14,.68-.19,.19-.04,.41-.06,.68-.06,.43,0,.94,.11,1.53,.31,.59,.21,1.21,.69,1.85,1.43,1.39,1.74,2.09,3.98,2.09,6.71,0,1.74-.32,3.34-.97,4.78-.64,1.45-1.5,2.47-2.57,3.05-2.57,1.41-4.5,3.87-5.79,7.39-1.28,3.52-1.93,7.64-1.93,12.36v32.56c0,2.65,.3,5.14,.89,7.45,.59,2.32,1.45,4.33,2.57,6.03,1.13,1.7,2.51,3.03,4.14,3.98,1.64,.95,3.53,1.43,5.67,1.43h14.63c1.56,0,2.88,.83,3.98,2.48,1.1,1.66,1.68,3.69,1.73,6.09Z"/>
  <path class="cls-1" d="M548.95,78.91c0,2.23-.08,4.63-.24,7.2,0,.58-.14,1.08-.4,1.49-.27,.42-.59,.62-.97,.62l-14.63,.25c-.49,0-.89-.25-1.21-.74-.32-.5-.48-1.12-.48-1.87s.16-1.38,.48-1.92,.72-.81,1.21-.81l11.09-.25c.7,0,1.07-.54,1.13-1.61,.05-1.16,.08-2.82,.08-4.97s-.17-4.43-.52-6.84c-.35-2.4-.93-4.78-1.73-7.14-.81-2.36-1.96-4.33-3.46-5.9-.59-.67-.88-1.45-.88-2.37l.16-1.24c.37-1.07,.91-1.61,1.6-1.61,.33,0,.65,.12,.97,.37,.8,.66,1.7,1.72,2.69,3.17,1,1.45,1.92,3.5,2.78,6.15,.85,2.65,1.46,5.59,1.81,8.82,.34,3.23,.52,6.3,.52,9.2Z"/>
  <path class="cls-2" d="M500.3,41.75v101.77c0,5.79-.63,11.03-1.88,15.72-1.26,4.67-3.01,8.67-5.26,11.99-2.25,3.31-4.95,5.86-8.11,7.64s-6.63,2.67-10.43,2.67h-14.29c-1.66,0-3.01-.89-4.05-2.67-1.05-1.78-1.57-3.83-1.57-6.15v-.75c.11-2.15,.73-4.02,1.88-5.59,1.16-1.57,2.45-2.36,3.9-2.36h14.03c2.09,0,3.92-.52,5.5-1.55,1.57-1.04,2.88-2.49,3.93-4.35,1.04-1.87,1.81-4.08,2.32-6.65s.76-5.34,.76-8.33v-12.3c-1.77,3.32-3.96,5.89-6.59,7.71s-5.63,2.73-9.01,2.73c-5.46,0-9.92-2.01-13.38-6.03-3.46-4.01-5.91-9.54-7.36-16.58-.96-4.56-1.45-9.74-1.45-15.54,0-2.56,.59-4.76,1.77-6.58,.44-.68,.92-1.24,1.44-1.66,.86-.71,1.83-1.07,2.9-1.07h.97c1.71,0,3.16,.91,4.34,2.73s1.77,4.02,1.77,6.58v.5c0,2.82,.25,5.43,.76,7.83s1.28,4.49,2.3,6.27c1.01,1.79,2.27,3.19,3.77,4.23s3.25,1.55,5.23,1.55,3.67-.54,5.23-1.61c1.55-1.08,2.88-2.55,3.98-4.41,1.1-1.87,1.93-4.06,2.49-6.59,.56-2.52,.84-5.24,.84-8.14v-27.46c0-4.97-.72-9.21-2.17-12.73-1.44-3.52-3.53-5.91-6.27-7.15-1.12-.58-2.04-1.55-2.73-2.92-.7-1.37-1.05-2.92-1.05-4.66,0-1.18,.13-2.25,.39-3.21,.26-.93,.64-1.77,1.14-2.5,1.02-1.5,2.2-2.24,3.54-2.24,.69,0,1.46,.31,2.29,.93s1.62,1.39,2.37,2.3,1.45,1.91,2.09,2.98c.65,1.08,1.15,2.03,1.53,2.86l-.16-7.33c0-1.08,.21-1.93,.64-2.55s.91-.93,1.45-.93h.4c.59,.08,1.06,.46,1.41,1.12s.52,1.45,.52,2.36V118.29c0,.67,.15,1.21,.44,1.62,.3,.41,.61,.62,.93,.62,.05,0,.11-.02,.16-.06s.11-.06,.16-.06c.7-.25,1.05-1,1.05-2.24V41.63c0-1.08,.24-1.99,.72-2.73,.48-.75,1.07-1.12,1.77-1.12h.08c.75,0,1.36,.37,1.85,1.12,.48,.74,.72,1.69,.72,2.85Z"/>
  <path class="cls-1" d="M474.49,41.88c0,.87-.16,1.66-.49,2.37l-.15,.3c-.43,.79-.96,1.26-1.6,1.43-2.14,.5-4.23,1.43-6.29,2.79-2.05,1.37-3.91,3.42-5.57,6.15-1.65,2.74-3.04,6.28-4.16,10.63s-1.79,9.75-2,16.21v7.83c0,1.16-.23,2.13-.7,2.92-.46,.79-1.07,1.22-1.83,1.31h-.33c-.6,0-1.14-.38-1.63-1.12-.6-.91-.9-1.91-.9-2.99v-7.95c0-5.96,.46-11.47,1.37-16.52s2.32-9.51,4.22-13.36,4.27-7,7.12-9.44c2.84-2.45,6.19-4,10.05-4.66h.4c.59,0,1.15,.37,1.69,1.12,.53,.74,.8,1.73,.8,2.98Z"/>
  <path class="cls-1" d="M473.73,50.64c.51,.62,.76,1.55,.76,2.79,0,1.83-.59,3.03-1.77,3.61-1.55,.58-2.96,1.53-4.22,2.85-1.26,1.33-2.33,3.11-3.22,5.35-.88,2.23-1.56,5.03-2.05,8.38-.48,3.36-.72,7.32-.72,11.87v1.49c0,1.08-.21,2.01-.64,2.8s-1,1.26-1.69,1.43h-.4c-.6,0-1.16-.38-1.69-1.12-.54-.75-.81-1.74-.81-2.98,0-4.06,.2-8.08,.61-12.06,.4-3.97,1.13-7.64,2.21-10.99,1.07-3.36,2.53-6.28,4.38-8.76,1.85-2.49,4.19-4.31,7.03-5.47,.11-.08,.33-.12,.65-.12,.53,0,1.06,.31,1.57,.93Z"/>
  <path class="cls-1" d="M442.57,77.91v61.63c0,1.16-.26,2.13-.76,2.92-.51,.79-1.14,1.18-1.89,1.18s-1.4-.41-1.93-1.24c-.54-.75-.81-1.7-.81-2.86v-61.63c0-1.16,.27-2.13,.81-2.92,.53-.78,1.18-1.18,1.93-1.18s1.38,.4,1.89,1.18c.5,.79,.76,1.76,.76,2.92Z"/>
  <path class="cls-2" d="M442.25,66.98v.62c0,.99-.23,1.92-.69,2.79-.45,.87-1.08,1.31-1.88,1.31h-2.9c-.59,0-1.11,.33-1.57,.99-.45,.67-.68,1.45-.68,2.36l.16,64.49c0,1.16-.27,2.13-.8,2.92-.54,.79-1.18,1.18-1.93,1.18s-1.4-.39-1.93-1.18c-.54-.79-.81-1.76-.81-2.92v-5.96c-1.71,3.15-3.85,5.63-6.39,7.45-2.55,1.83-5.51,2.74-8.89,2.74-3.1,0-5.97-.64-8.6-1.93-2.63-1.28-4.88-3.19-6.75-5.72-1.88-2.52-3.35-5.69-4.43-9.5-1.07-3.81-1.6-8.24-1.6-13.3s.56-9.81,1.68-13.54c1.13-3.73,2.72-6.81,4.79-9.26,2.06-2.44,4.55-4.35,7.48-5.71,2.92-1.37,6.15-2.38,9.69-3.05l10.93-1.98c.59-.17,1.1-.61,1.53-1.31s.64-1.51,.64-2.42v-3.48c0-5.05-.99-9.2-2.97-12.43-1.99-3.23-5.07-4.84-9.25-4.84h-14.15c-1.56,0-2.88-.85-3.98-2.55s-1.65-3.75-1.65-6.15,.55-4.45,1.65-6.15,2.42-2.55,3.98-2.55h16.16c6.7,0,12.03,2.53,16,7.58s6.35,12.22,7.16,21.5Zm-13.03,42.12v-11.93c0-.66-.15-1.22-.44-1.68-.3-.45-.63-.68-1.01-.68h-.16l-8.92,1.99c-1.13,.25-2.25,.54-3.38,.87s-2.2,.76-3.22,1.3c-1.01,.54-1.94,1.27-2.77,2.18s-1.54,2.11-2.13,3.6c-.8,1.91-1.21,4.43-1.21,7.58,0,4.39,.83,7.97,2.5,10.75,1.66,2.77,4.31,4.16,7.96,4.16s6.68-1.59,8.96-4.78,3.55-7.65,3.82-13.36Z"/>
  <path class="cls-2" d="M386.04,74.56v14.91c0,.91-.2,1.7-.6,2.36s-.9,.99-1.49,.99h-3.69c-.6,0-1.09,.33-1.49,1-.41,.66-.61,1.45-.61,2.36v43.49c0,1.16-.25,2.11-.76,2.85-.51,.75-1.14,1.12-1.89,1.12s-1.37-.37-1.85-1.12c-.48-.74-.72-1.69-.72-2.85V75.3c0-5.71-1.02-10.45-3.06-14.23-2.04-3.76-5.04-5.65-9-5.65-1.99,0-3.76,.52-5.31,1.55-1.56,1.04-2.88,2.49-3.98,4.35-1.1,1.87-1.93,4.06-2.49,6.59-.57,2.53-.85,5.28-.85,8.26v57.28c0,2.9-.64,5.33-1.93,7.27-1.28,1.95-2.84,2.96-4.66,3.05-1.88,0-3.46-1-4.74-2.99-1.29-1.98-1.93-4.43-1.93-7.33V45.85c0-2.23,.5-4.16,1.52-5.77,1.02-1.62,2.25-2.43,3.7-2.43h1.61c1.45,0,2.68,.79,3.7,2.36,1.02,1.58,1.53,3.48,1.53,5.72,0,.91,.24,1.37,.72,1.37,.37,0,.83-.25,1.37-.75,.53-.5,1.01-1.03,1.44-1.61,3.6-4.73,8.12-7.09,13.59-7.09,3.59,0,6.76,.89,9.49,2.67,2.74,1.79,5.03,4.29,6.88,7.52s3.22,7.13,4.14,11.68c.91,4.56,1.36,9.57,1.36,15.04Z"/>
  <path class="cls-1" d="M385.88,103.38v36.41c0,1.16-.27,2.13-.8,2.92-.54,.79-1.18,1.18-1.93,1.18s-1.39-.41-1.93-1.24c-.54-.75-.8-1.7-.8-2.86v-36.41c0-1.16,.26-2.15,.8-2.98s1.18-1.24,1.93-1.24,1.39,.41,1.93,1.24c.53,.83,.8,1.82,.8,2.98Z"/>
  <path class="cls-1" d="M328.55,77.91v61.63c0,1.16-.25,2.13-.76,2.92s-1.14,1.18-1.89,1.18-1.39-.41-1.93-1.24c-.54-.75-.8-1.7-.8-2.86v-61.63c0-1.16,.26-2.13,.8-2.92,.54-.78,1.18-1.18,1.93-1.18s1.38,.4,1.89,1.18c.51,.79,.76,1.76,.76,2.92Z"/>
  <path class="cls-2" d="M328.23,66.98v.62c0,.99-.23,1.92-.68,2.79-.46,.87-1.09,1.31-1.89,1.31h-2.9c-.59,0-1.11,.33-1.57,.99-.45,.67-.68,1.45-.68,2.36l.16,64.49c0,1.16-.27,2.13-.8,2.92-.54,.79-1.18,1.18-1.93,1.18s-1.4-.39-1.93-1.18c-.54-.79-.81-1.76-.81-2.92v-5.96c-1.71,3.15-3.84,5.63-6.39,7.45-2.54,1.83-5.51,2.74-8.88,2.74-3.11,0-5.98-.64-8.61-1.93-2.62-1.28-4.87-3.19-6.75-5.72-1.88-2.52-3.35-5.69-4.42-9.5-1.08-3.81-1.61-8.24-1.61-13.3s.56-9.81,1.69-13.54c1.12-3.73,2.72-6.81,4.78-9.26,2.06-2.44,4.56-4.35,7.48-5.71,2.92-1.37,6.15-2.38,9.69-3.05l10.93-1.98c.59-.17,1.1-.61,1.53-1.31s.65-1.51,.65-2.42v-3.48c0-5.05-1-9.2-2.98-12.43s-5.06-4.84-9.25-4.84h-14.15c-1.55,0-2.88-.85-3.98-2.55s-1.65-3.75-1.65-6.15,.55-4.45,1.65-6.15,2.43-2.55,3.98-2.55h16.16c6.7,0,12.04,2.53,16.01,7.58,3.96,5.05,6.35,12.22,7.15,21.5Zm-13.03,42.12v-11.93c0-.66-.14-1.22-.44-1.68-.29-.45-.63-.68-1-.68h-.16l-8.93,1.99c-1.12,.25-2.25,.54-3.38,.87-1.12,.33-2.19,.76-3.21,1.3s-1.95,1.27-2.78,2.18-1.54,2.11-2.13,3.6c-.8,1.91-1.2,4.43-1.2,7.58,0,4.39,.83,7.97,2.49,10.75,1.66,2.77,4.31,4.16,7.96,4.16s6.69-1.59,8.97-4.78c2.27-3.19,3.55-7.65,3.81-13.36Z"/>
  <path class="cls-1" d="M271.87,81.27v52.06c0,2.82-.65,5.22-1.93,7.21-1.29,1.98-2.85,2.98-4.67,2.98h-.24c-1.77,0-3.28-.98-4.54-2.92-1.26-1.95-1.89-4.37-1.89-7.27v-52.06c0-2.82,.63-5.22,1.89-7.21s2.8-2.98,4.62-2.98h.24c1.77,0,3.3,.97,4.59,2.92,1.28,1.94,1.93,4.37,1.93,7.27Z"/>
  <path class="cls-1" d="M271.7,35.42v28.45c0,1.16-.26,2.13-.8,2.92s-1.18,1.18-1.93,1.18-1.37-.41-1.85-1.24c-.54-.75-.8-1.7-.8-2.86v-28.45c0-1.16,.25-2.14,.76-2.92,.51-.79,1.14-1.18,1.89-1.18s1.39,.39,1.93,1.18c.54,.78,.8,1.76,.8,2.92Z"/>
  <path class="cls-2" d="M268.13,16.22c.02,.87,.04,1.39,.04,1.55,0,1.16-.22,2.53-.65,4.1l-23.15,71.45c-.49,1.57-1.21,2.79-2.18,3.66-.96,.87-2.01,1.31-3.13,1.31s-2.05-.39-2.94-1.18c-.88-.79-1.56-1.84-2.05-3.17-.53-1.24-.81-2.3-.84-3.17s-.04-1.38-.04-1.55c0-1.16,.21-2.53,.64-4.1l.68-2.08,1.89-5.75-18.57-52.93-.03,25.1-.05,35.91c0,2.81-.63,5.15-1.89,7.02-1.26,1.86-2.75,2.79-4.46,2.79h-.24c-1.67-.16-3.09-1.24-4.26-3.23-1.18-1.82-1.77-4.1-1.77-6.83V21.38c0-1.74,.21-3.4,.64-4.97,.43-1.58,1.02-2.92,1.77-4.04s1.62-2.01,2.61-2.67c.99-.67,2.05-1,3.18-1,1.55,0,2.99,.62,4.3,1.87,1.31,1.24,2.32,2.94,3.02,5.09l17.93,54.92,18.41-56.78c.48-1.58,1.19-2.82,2.13-3.73s1.97-1.37,3.1-1.37,2.11,.4,2.97,1.18c.86,.79,1.56,1.8,2.09,3.05,.54,1.32,.82,2.42,.85,3.29Z"/>
  <path class="cls-1" d="M264.15,54.68v9.19c0,1.16-.27,2.13-.81,2.92-.53,.79-1.18,1.18-1.93,1.18s-1.39-.41-1.93-1.24c-.53-.75-.8-1.7-.8-2.86v-9.19c0-1.16,.27-2.16,.8-2.99,.54-.82,1.18-1.24,1.93-1.24s1.4,.42,1.93,1.24c.54,.83,.81,1.83,.81,2.99Z"/>
  <path class="cls-1" d="M233.67,78.78c.16,.67,.24,1.29,.24,1.86,0,.42-.08,1.02-.24,1.81-.02,.1-.04,.19-.07,.29-.19,.65-.57,1.2-1.13,1.63-.43,.33-.84,.5-1.21,.5-1.07,0-1.88-.79-2.41-2.36l-9.97-31.19c-.22-.58-.33-1.2-.33-1.86,0-.42,.08-1,.25-1.74,.16-.75,.58-1.41,1.28-1.99,.38-.25,.78-.37,1.21-.37,1.07,0,1.87,.79,2.41,2.36l9.97,31.06Z"/>
  <path class="cls-1" d="M217.59,102.51v36.91c0,1.16-.26,2.15-.76,2.98-.51,.83-1.14,1.24-1.89,1.24s-1.4-.41-1.93-1.24c-.54-.83-.81-1.82-.81-2.98v-36.91c0-1.16,.27-2.15,.81-2.98,.53-.83,1.17-1.24,1.93-1.24s1.38,.41,1.89,1.24c.5,.83,.76,1.82,.76,2.98Z"/>
  <path class="cls-2" d="M210.35,102.51v36.91c0,1.16-.25,2.15-.76,2.98s-1.14,1.24-1.89,1.24-1.4-.41-1.93-1.24c-.54-.83-.8-1.82-.8-2.98v-36.91c0-1.16,.26-2.15,.8-2.98,.53-.83,1.18-1.24,1.93-1.24s1.38,.41,1.89,1.24,.76,1.82,.76,2.98Z"/>
  <path class="cls-2" d="M199.94,132.4c.03,.87,.04,1.39,.04,1.55,0,1.16-.13,2.3-.4,3.42s-.67,2.13-1.21,3.04c-.53,.91-1.16,1.66-1.89,2.24-.72,.58-1.57,.91-2.53,.99h-.56c-.92,0-1.8-.35-2.66-1.05-.85-.71-1.58-1.76-2.17-3.17l-21.31-48.71c-.1-.17-.18-.25-.24-.25h-.08c-.05,0-.08,.13-.08,.37v48.84c0,1.07-.24,1.98-.73,2.73-.49,.74-1.09,1.12-1.8,1.12h-.33c-.7,0-1.3-.38-1.79-1.12-.49-.75-.74-1.66-.74-2.73v-57.41c0-1.16,.28-2.03,.82-2.61l1.14-1.24c.44-.41,.87-.62,1.31-.62,.54,0,1.03,.29,1.47,.87,.43,.58,.65,1.36,.65,2.36l20.18-39.76c1.13-2.24,2.58-3.36,4.35-3.36h.4c.96,.08,1.78,.42,2.45,1s1.23,1.3,1.69,2.17c.45,.87,.79,1.8,1,2.8,.22,.99,.33,1.98,.33,2.98,0,.33-.03,.97-.08,1.92-.06,.96-.46,2.14-1.21,3.55l-16,31.18c-.22,.34-.32,.79-.32,1.37,0,.42,.08,.79,.24,1.12l18.97,42.74c.7,1.58,1.06,2.8,1.09,3.67Z"/>
  <path class="cls-1" d="M166.85,10.44v57.28c0,1.41-.4,2.53-1.22,3.36l-6,5.71c-.71,.58-1.06,1.58-1.06,2.99v59.89c0,1.16-.24,2.11-.72,2.85-.49,.75-1.08,1.12-1.77,1.12-.75,0-1.37-.37-1.85-1.12-.48-.74-.73-1.69-.73-2.85V10.44c0-2.9,.64-5.32,1.9-7.27,1.27-1.94,2.8-2.92,4.58-2.92h.24c1.83,0,3.4,1,4.69,2.98,1.29,1.99,1.94,4.4,1.94,7.21Z"/>
  <path class="cls-1" d="M145.75,102.45c.83,2.69,1.24,5.82,1.24,9.38,0,2.9-.43,5.78-1.28,8.64-.86,2.86-1.85,5.51-2.98,7.95-1.13,2.45-2.24,4.58-3.34,6.4s-1.89,3.11-2.37,3.85c-.27,.42-.64,.62-1.12,.62s-.96-.27-1.41-.8c-.46-.54-.79-1.27-1.01-2.18-.05-.16-.08-.54-.08-1.12,0-.99,.3-1.94,.89-2.85,.69-.92,1.58-2.2,2.65-3.86,1.07-1.65,2.09-3.56,3.06-5.71,.91-2.16,1.63-4.23,2.17-6.22,.53-1.98,.8-3.85,.8-5.59,0-.41-.01-.78-.04-1.12-.03-.33-.07-.7-.12-1.11-.21-2.16-.86-4.27-1.93-6.34s-2.26-4-3.58-5.78c-1.31-1.78-2.62-3.33-3.94-4.66-1.31-1.32-2.34-2.28-3.09-2.86-.59-.41-.89-1.11-.89-2.11v-.5c0-.12,0-.24,.01-.36,.05-.81,.26-1.41,.64-1.81,.42-.45,.77-.68,1.04-.68,.21,0,.46,.12,.72,.37,1.99,1.74,3.89,3.5,5.71,5.28,1.83,1.78,3.45,3.75,4.87,5.9,1.42,2.16,2.54,4.58,3.38,7.27Z"/>
  <path class="cls-2" d="M141.28,40.39c1.07,1.65,1.61,3.68,1.61,6.09s-.54,4.3-1.61,5.96-2.38,2.48-3.94,2.48h-16.08c-2.89,0-5.21,.81-6.95,2.43-1.75,1.61-2.62,4.16-2.62,7.64,0,2.57,.5,4.89,1.49,6.96s2.85,3.81,5.59,5.22l7.24,3.72c1.01,.5,1.52,1.54,1.52,3.11v.37l-.05,1.7-.03,1.16v.87c0,.66,.04,1.39,.12,2.17,.08,.79,.37,1.43,.85,1.93,1.39,1.58,2.72,3.07,3.98,4.47,1.26,1.41,2.37,2.84,3.33,4.29,.97,1.45,1.75,2.96,2.34,4.54,.59,1.57,.91,3.27,.96,5.09v1.37c0,3.48-.59,6.67-1.77,9.56-1.18,2.9-2.76,5.56-4.74,7.96-.59,.66-.93,1.47-1.01,2.42s-.12,1.64-.12,2.05c0,.83,.08,1.62,.24,2.36,.03,.08,.05,.16,.07,.23,.06,.22,.09,.39,.09,.52v.87c0,.91-.2,1.88-.6,2.92-.4,1.03-1.08,1.67-2.05,1.92-.91,.33-1.93,.56-3.05,.69-1.13,.12-2.31,.18-3.54,.18h-17.05c-1.55,0-2.87-.81-3.94-2.42-1.07-1.62-1.63-3.62-1.69-6.03v-.37c0-2.24,.55-4.2,1.65-5.9s2.43-2.55,3.98-2.55h17.21c4.07,0,6.95-1.1,8.64-3.29,1.69-2.2,2.54-5.2,2.54-9.01,0-3.23-.64-5.9-1.89-8.02-1.26-2.11-3.26-3.83-5.99-5.15l-11.42-5.47c-3.11-1.57-5.91-3.83-8.41-6.77-2.49-2.94-4.38-6.81-5.66-11.62-.86-2.9-1.29-6.5-1.29-10.81,0-3.81,.51-7.41,1.53-10.81,1.01-3.39,2.49-6.4,4.42-9.01s4.3-4.68,7.12-6.21c2.81-1.53,5.99-2.3,9.52-2.3h15.52c1.56,0,2.87,.83,3.94,2.49Z"/>
  <path class="cls-1" d="M93.28,77.91v61.63c0,1.16-.26,2.13-.76,2.92-.51,.79-1.14,1.18-1.89,1.18s-1.4-.41-1.93-1.24c-.54-.75-.81-1.7-.81-2.86v-61.63c0-1.16,.27-2.13,.81-2.92,.53-.78,1.17-1.18,1.93-1.18s1.38,.4,1.89,1.18c.5,.79,.76,1.76,.76,2.92Z"/>
  <path class="cls-2" d="M92.96,66.98v.62c0,.99-.23,1.92-.69,2.79-.45,.87-1.08,1.31-1.89,1.31h-2.89c-.59,0-1.11,.33-1.57,.99-.45,.67-.68,1.45-.68,2.36l.16,64.49c0,1.16-.27,2.13-.8,2.92-.54,.79-1.18,1.18-1.93,1.18s-1.4-.39-1.93-1.18c-.54-.79-.81-1.76-.81-2.92v-5.96c-1.71,3.15-3.85,5.63-6.39,7.45-2.55,1.83-5.51,2.74-8.89,2.74-3.11,0-5.97-.64-8.6-1.93-2.63-1.28-4.88-3.19-6.75-5.72-1.88-2.52-3.35-5.69-4.43-9.5-1.07-3.81-1.6-8.24-1.6-13.3s.56-9.81,1.68-13.54c1.13-3.73,2.72-6.81,4.79-9.26,2.06-2.44,4.55-4.35,7.48-5.71,2.92-1.37,6.15-2.38,9.69-3.05l10.93-1.98c.59-.17,1.1-.61,1.53-1.31s.64-1.51,.64-2.42v-3.48c0-5.05-.99-9.2-2.97-12.43-1.99-3.23-5.07-4.84-9.25-4.84h-14.15c-1.56,0-2.88-.85-3.98-2.55s-1.65-3.75-1.65-6.15,.55-4.45,1.65-6.15,2.42-2.55,3.98-2.55h16.16c6.7,0,12.03,2.53,16,7.58s6.35,12.22,7.16,21.5Zm-13.03,42.12v-11.93c0-.66-.15-1.22-.44-1.68-.3-.45-.63-.68-1.01-.68h-.16l-8.92,1.99c-1.13,.25-2.25,.54-3.38,.87-1.12,.33-2.2,.76-3.22,1.3-1.01,.54-1.94,1.27-2.77,2.18s-1.54,2.11-2.13,3.6c-.8,1.91-1.21,4.43-1.21,7.58,0,4.39,.83,7.97,2.5,10.75,1.66,2.77,4.31,4.16,7.96,4.16s6.68-1.59,8.96-4.78,3.55-7.65,3.82-13.36Z"/>
  <path class="cls-2" d="M53.2,11.6c1.2,1.86,1.81,4.1,1.81,6.73s-.61,4.88-1.81,6.73c-1.21,1.85-2.67,2.78-4.39,2.78h-11.98c-.64,0-1.19,.35-1.65,1.06-.45,.7-.68,1.55-.68,2.54v108.59c0,1-.23,1.83-.68,2.49-.46,.67-1.01,1.04-1.65,1.12-.64,0-1.19-.35-1.65-1.05-.45-.71-.68-1.56-.68-2.56v-59.45c0-1-.23-1.85-.69-2.55-.45-.71-1-1.06-1.64-1.06h-4.43c-.64,0-1.19-.35-1.65-1.06-.45-.7-.68-1.55-.68-2.55V31.44c0-.99-.23-1.84-.68-2.54-.46-.71-1.01-1.06-1.65-1.06H6.44c-1.66,0-3.11-.95-4.34-2.84-1.24-1.89-1.85-4.12-1.85-6.67s.6-4.87,1.81-6.73c1.2-1.85,2.66-2.77,4.38-2.77H48.81c1.72,0,3.18,.92,4.39,2.77Z"/>
  <path class="cls-1" d="M26.14,85.99v53.43c0,1.16-.27,2.15-.79,2.98-.53,.83-1.17,1.24-1.9,1.24s-1.38-.41-1.91-1.24c-.52-.83-.79-1.82-.79-2.98v-53.43c0-1.16,.27-2.13,.79-2.92,.53-.79,1.17-1.18,1.91-1.18s1.37,.39,1.9,1.18c.52,.79,.79,1.76,.79,2.92Z"/>
</svg>